HIERARCHY
ROOT Spine
{
    OFFSET 0.0 0.0 -0.0
    CHANNELS 6 Xposition Yposition Zposition Zrotation Xrotation Yrotation
    JOINT ShoulderCenter
    {
        OFFSET 0.0 33.39867401123047 0.0
        CHANNELS 3 Zrotation Xrotation Yrotation
        JOINT LeftShoulder
        {
            OFFSET 19.018089294433594 0.0 0.0
            CHANNELS 3 Zrotation Xrotation Yrotation
            JOINT LeftElbow
            {
                OFFSET 29.74721908569336 0.0 0.0
                CHANNELS 3 Zrotation Xrotation Yrotation
                JOINT LeftHand
                {
                    OFFSET 33.25140380859375 0.0 0.0
                    CHANNELS 3 Zrotation Xrotation Yrotation
                    End Site
                    {
                        OFFSET 13.30056095123291 0.0 0.0
                    }
                }
            }
        }
        JOINT RightShoulder
        {
            OFFSET -19.018089294433594 0.0 0.0
            CHANNELS 3 Zrotation Xrotation Yrotation
            JOINT RightElbow
            {
                OFFSET -29.74721908569336 0.0 0.0
                CHANNELS 3 Zrotation Xrotation Yrotation
                JOINT RightHand
                {
                    OFFSET -33.25140380859375 0.0 0.0
                    CHANNELS 3 Zrotation Xrotation Yrotation
                    End Site
                    {
                        OFFSET -13.30056095123291 0.0 0.0
                    }
                }
            }
        }
        End Site
        {
            OFFSET 0.0 13.359467506408691 0.0
        }
    }
    JOINT LeftHip
    {
        OFFSET 16.93185373410558 -16.93185373410558 0.0
        CHANNELS 3 Zrotation Xrotation Yrotation
        JOINT LeftKnee
        {
            OFFSET 0.0 -40.64476013183594 0.0
            CHANNELS 3 Zrotation Xrotation Yrotation
            JOINT LeftFoot
            {
                OFFSET 0.0 -44.77838134765625 0.0
                CHANNELS 3 Zrotation Xrotation Yrotation
                End Site
                {
                    OFFSET 0.0 0.0 17.911354064941406
                }
            }
        }
    }
    JOINT RightHip
    {
        OFFSET -16.93185373410558 -16.93185373410558 0.0
        CHANNELS 3 Zrotation Xrotation Yrotation
        JOINT RightKnee
        {
            OFFSET 0.0 -40.64476013183594 0.0
            CHANNELS 3 Zrotation Xrotation Yrotation
            JOINT RightFoot
            {
                OFFSET 0.0 -44.77838134765625 0.0
                CHANNELS 3 Zrotation Xrotation Yrotation
                End Site
                {
                    OFFSET 0.0 0.0 17.911354064941406
                }
            }
        }
    }
}
MOTION
Frames: 5
Frame Time: 0.03333333333333333
49.39999771118164 34.900001525878906 44.0 6.1843922621262735 14.165192274344422 176.88363336240903 -3.488176733285356e-08 -1.2767634733465263e-07 -29.53155834079159 121.58722948261111 15.683282044866653 -92.15861079995084 3.967123878261456e-06 -4.597965017592495e-06 36.97999312176642 -9.54166404439055e-15 2.648343778830095e-31 -3.1805546814635168e-15 -163.94745338675187 66.68514337566762 135.43691573508372 4.625480223433031e-07 -6.112220791760831e-06 -47.2674330611725 -6.3611093629270335e-15 -5.29668755766019e-31 9.54166404439055e-15 6.9893014991048 -5.28213162837901 -97.3804633214307 -24.96799680648565 -8.219544638708241 9.903392494781796 -1.987846675914698e-16 1.987846675914698e-16 7.951386703658792e-16 -108.2092967042028 -41.64998629549973 173.86931298773226 -53.028909345402184 -33.02030173284112 -66.55152729930484 8.827812596100317e-32 3.180554681463516e-15 -3.180554681463516e-15
47.60000228881836 39.20000076293945 48.29999923706055 3.7198812365798384 14.548127704412217 162.74736157058157 5.793068172096224e-07 -1.2673103462292408e-06 -28.76835621319077 114.54071894225083 20.02348260104599 -90.84784872032746 1.97363217901829e-06 -5.2788360051268156e-08 29.784495805613176 -2.2069531490250793e-32 -1.5902773407317588e-15 -1.5902773407317588e-15 -135.56250592261412 58.589025280193056 108.11561375665013 -4.549098251615954e-06 -2.3585410354170153e-06 -46.28565418908334 1.7655625192200634e-31 6.3611093629270335e-15 -3.1805546814635168e-15 11.050111262427857 -16.60850530614834 -142.19993866193965 -9.842725754226585 -33.106025864005325 56.75562437730493 9.939233379573489e-17 5.3597818481267035e-33 6.179407752706705e-15 -112.45088422252701 -42.98979239046951 171.28253183142036 -51.594036353104805 -29.416416906357316 -64.99515870589146 6.361109362927032e-15 -8.827812596100317e-32 -1.590277340731758e-15
46.099998474121094 42.69999694824219 53.20000076293945 2.459039557470963 12.275686175861676 148.06677498608101 -2.9495191731127987e-09 -8.389061851499317e-07 -21.547697416658117 113.81724586573522 22.988442596521033 -89.99292527687456 -1.5414824194060467e-06 1.6110761697995063e-06 28.248920183102836 1.5902773407317582e-15 2.385416011097637e-15 3.1805546814635164e-15 -125.56725754132697 49.65204524762446 102.42111220965013 4.4008972435337375e-07 2.9101896608368367e-06 -41.885314950882545 0.0 0.0 0.0 23.552382164395507 -30.370617174302502 177.18228708973822 20.734121541880928 -26.565447536810186 97.85658565175588 0.0 0.0 -4.174478019420866e-15 -109.9763954268717 -44.93508219334221 169.1157393886947 -50.10119725881903 -26.420191687414846 -73.01413157227228 -6.3611093629270335e-15 -1.7655625192200634e-31 3.1805546814635168e-15
44.900001525878906 44.80000305175781 57.900001525878906 2.2559449180417293 9.455120104573068 136.25263533805781 -8.464076718242188e-08 -2.3333510296696425e-07 -16.547386151668714 107.44426209065509 26.000173411562198 -87.03464087528408 -1.9892195702537646e-07 2.1300832975043982e-07 27.176960618785504 7.95138670365879e-16 -6.3611093629270335e-15 -3.1805546814635168e-15 -118.40495066771221 39.54671121151902 99.55008202461796 -1.3653569197741184e-06 4.2494080847293144e-06 -34.65170314741751 -3.180554681463516e-15 -6.361109362927033e-15 3.180554681463516e-15 44.98830245292389 -40.31192500947403 176.82705638387745 20.053816846985427 -18.16229577466299 60.737024486616676 2.2069531490250793e-32 6.3611093629270335e-15 -3.975693351829396e-16 -101.33692417144137 -44.39143273689039 168.4214975835493 -49.3512278785675 -24.820669547788274 -86.56662786192824 0.0 0.0 4.770832022195275e-15
44.20000076293945 45.5 62.19999694824219 1.7252551164196945 6.526607456957234 123.79208622968893 9.991126816815035e-07 -2.0193315844561464e-07 -9.114273786154818 97.69143324605871 28.777246303151195 -80.46107667023844 -1.3307224023867986e-06 -1.2040013062655641e-05 24.9918523092385 1.590277340731758e-15 2.2069531490250793e-32 1.590277340731758e-15 -108.51489073175402 30.33626070662815 94.70129800142554 -1.190152252264207e-06 7.5121386055748285e-06 -26.141929117076224 0.0 0.0 4.770832022195275e-15 74.0525994943956 -39.252505361395805 -163.6510290609743 12.491432291901418 -12.731215480690729 17.838005244684222 3.1805546814635168e-15 2.648343778830095e-31 9.54166404439055e-15 -89.37043461295923 -46.2551399354417 171.130653421879 -49.068747914320056 -23.579843105724038 -108.05847707106642 -4.770832022195277e-15 3.1805546814635176e-15 -3.1805546814635176e-15
